<svg version="1.1" id="Layer_1" xmlns="http://www.w3.org/2000/svg" xmlns:xlink="http://www.w3.org/1999/xlink" x="0px" y="0px"
	 width="100%" viewBox="0 0 281 318" enable-background="new 0 0 281 318" xml:space="preserve">
<path fill="#000000" opacity="1.000000" stroke="none" 
	d="
M153.000000,319.000000 
	C102.000008,319.000000 51.500019,319.000000 1.000020,319.000000 
	C1.000014,213.000031 1.000014,107.000053 1.000007,1.000063 
	C94.666626,1.000042 188.333252,1.000042 281.999908,1.000021 
	C281.999939,106.999939 281.999939,212.999878 281.999969,318.999908 
	C239.166672,319.000000 196.333328,319.000000 153.000000,319.000000 
M77.389778,202.194962 
	C77.223549,202.789993 77.057320,203.385010 76.285011,204.260651 
	C69.965027,211.696915 60.744595,213.021179 52.023109,215.337006 
	C52.023109,217.686234 51.994225,219.668961 52.029480,221.650528 
	C52.091312,225.125977 54.265484,226.218597 57.296814,226.013779 
	C62.186394,225.683441 67.065796,225.202545 72.828735,224.897385 
	C77.233086,224.599075 81.633438,224.164749 86.042747,224.034958 
	C92.360001,223.849045 98.683792,223.885468 105.902588,223.955856 
	C111.717949,224.282684 117.530464,224.811127 123.349289,224.893448 
	C134.676483,225.053711 146.092499,225.840286 157.314194,224.748474 
	C170.359924,223.479172 183.114975,220.622742 194.648193,213.260315 
	C213.527206,201.208588 221.948227,184.898727 219.188065,162.375351 
	C216.971588,144.288422 199.289658,126.088196 181.728546,123.990166 
	C177.836349,123.525162 173.958786,122.937889 170.074478,122.406914 
	C171.787689,120.790672 173.490051,119.828064 175.318985,119.357338 
	C184.201645,117.071129 191.168564,112.195824 196.716537,104.861198 
	C210.006165,87.291756 206.823257,61.683594 187.316666,48.565926 
	C176.242859,41.119076 163.851944,37.679474 150.978195,36.773132 
	C139.055954,35.933769 127.002296,36.961468 114.079506,37.022438 
	C103.384544,37.410084 92.689583,37.797729 81.552391,38.045002 
	C81.552391,38.045002 81.094688,37.968960 80.912613,37.481544 
	C80.576431,37.643780 80.240250,37.806015 79.452415,38.042606 
	C79.452415,38.042606 79.016235,38.181393 78.224144,38.031601 
	C77.155190,38.078121 76.086235,38.124638 74.364876,37.883823 
	C68.729164,37.456619 63.093445,37.029411 57.636814,36.615780 
	C55.013794,44.503128 55.473862,45.933544 62.539680,47.817558 
	C68.947113,49.526028 74.236176,52.453030 77.926399,58.744946 
	C78.271492,59.213348 78.616592,59.681751 79.023979,60.721931 
	C79.317200,61.154408 79.610413,61.586884 79.998009,62.861351 
	C80.056389,64.268471 80.114769,65.675583 80.046265,68.002510 
	C80.027649,79.994728 79.978935,91.986992 79.996368,103.979156 
	C80.038979,133.290253 80.112190,162.601303 80.029808,192.739197 
	C79.332634,195.816193 78.635460,198.893188 77.992088,201.998367 
	C77.992088,201.998367 77.965096,201.943970 77.389778,202.194962 
z"/>
<path fill="#5C83C8" opacity="1.000000" stroke="none" 
	d="
M79.016235,38.181393 
	C79.016235,38.181393 79.452415,38.042606 79.976028,38.012505 
	C80.697998,37.977921 80.896347,37.973442 81.094688,37.968960 
	C81.094688,37.968960 81.552391,38.045002 82.148926,38.285736 
	C92.387009,38.669014 102.028526,38.870979 111.670105,38.873306 
	C112.782104,38.873573 113.894363,37.762691 115.006508,37.166981 
	C127.002296,36.961468 139.055954,35.933769 150.978195,36.773132 
	C163.851944,37.679474 176.242859,41.119076 187.316666,48.565926 
	C206.823257,61.683594 210.006165,87.291756 196.716537,104.861198 
	C191.168564,112.195824 184.201645,117.071129 175.318985,119.357338 
	C173.490051,119.828064 171.787689,120.790672 170.074478,122.406914 
	C173.958786,122.937889 177.836349,123.525162 181.728546,123.990166 
	C199.289658,126.088196 216.971588,144.288422 219.188065,162.375351 
	C221.948227,184.898727 213.527206,201.208588 194.648193,213.260315 
	C183.114975,220.622742 170.359924,223.479172 157.314194,224.748474 
	C146.092499,225.840286 134.676483,225.053711 123.349289,224.893448 
	C117.530464,224.811127 111.717949,224.282684 105.110565,223.654068 
	C94.684418,223.292023 85.049911,223.176682 75.416664,223.243652 
	C74.257431,223.251724 73.105057,224.247345 71.949501,224.785248 
	C67.065796,225.202545 62.186394,225.683441 57.296814,226.013779 
	C54.265484,226.218597 52.091312,225.125977 52.029480,221.650528 
	C51.994225,219.668961 52.023109,217.686234 52.023109,215.337006 
	C60.744595,213.021179 69.965027,211.696915 76.792206,203.909027 
	C77.521294,203.019577 77.743195,202.481781 77.965096,201.943970 
	C77.965096,201.943970 77.992088,201.998367 78.289215,201.849121 
	C79.719513,198.683487 81.823692,195.672195 81.839485,192.649979 
	C82.058113,150.823593 82.014778,108.995651 81.903732,67.168442 
	C81.899170,65.450325 80.599770,63.735641 79.903625,62.019363 
	C79.610413,61.586884 79.317200,61.154408 78.922768,60.144455 
	C78.494415,59.082539 78.167274,58.598095 77.840141,58.113651 
	C74.236176,52.453030 68.947113,49.526028 62.539680,47.817558 
	C55.473862,45.933544 55.013794,44.503128 57.636814,36.615780 
	C63.093445,37.029411 68.729164,37.456619 74.956772,38.177166 
	C76.704521,38.374138 77.860382,38.277767 79.016235,38.181393 
M171.980316,204.967560 
	C171.980316,204.967560 171.897125,204.952057 172.573563,204.893188 
	C173.373184,204.228165 174.172791,203.563141 174.994415,202.984039 
	C174.994415,202.984039 174.908463,203.005859 175.333115,202.677597 
	C175.553680,202.397202 175.774231,202.116821 176.203537,201.343796 
	C176.746277,200.896835 177.289017,200.449875 178.470963,199.767105 
	C178.965805,198.817261 179.460648,197.867432 179.970810,196.980560 
	C179.970810,196.980560 179.906387,196.973572 180.570969,196.759018 
	C181.602478,195.302490 183.091309,193.987747 183.593689,192.367203 
	C187.899719,178.477142 187.353912,164.844009 180.677216,151.747818 
	C179.916367,150.255386 178.170120,149.265320 176.965942,148.006531 
	C176.965942,148.006531 177.001480,148.091797 176.676804,147.665894 
	C176.397537,147.445084 176.118256,147.224289 175.267609,146.649750 
	C169.902405,138.991684 161.915070,134.586807 153.309875,133.359375 
	C140.490250,131.530807 127.386017,131.689575 114.399826,131.066513 
	C113.890976,131.042099 113.350517,131.676422 112.478378,132.749649 
	C112.329628,133.564713 112.052475,134.379532 112.051033,135.194855 
	C112.020447,152.509338 112.003716,169.823929 112.050026,187.138321 
	C112.053474,188.428543 112.552101,189.717468 112.950844,191.821121 
	C113.528740,200.025330 117.226067,205.967560 125.299706,208.636795 
	C128.180695,209.589279 131.129486,210.336700 134.790375,211.503128 
	C142.865936,211.066360 150.941498,210.629593 159.458939,210.041779 
	C159.458939,210.041779 159.917511,209.953568 160.487350,209.844513 
	C161.014679,209.607727 161.542007,209.370941 162.681992,209.042053 
	C163.093796,209.012085 163.505585,208.982117 164.493088,208.812027 
	C164.997086,208.510757 165.501099,208.209473 165.997147,207.977997 
	C165.997147,207.977997 165.927521,207.968582 166.640533,207.957840 
	C167.817444,207.352524 168.994370,206.747208 170.512756,206.047485 
	C170.512756,206.047485 170.862991,205.994308 171.291626,205.679672 
	C171.526199,205.414551 171.760773,205.149414 171.980316,204.967560 
M112.475830,69.740700 
	C112.362358,85.065819 112.235039,100.390892 112.177109,115.716225 
	C112.174263,116.466858 112.778450,117.219780 114.023872,118.014641 
	C125.103043,117.659637 136.244980,117.882927 147.233215,116.690178 
	C152.248840,116.145752 157.873886,113.848640 161.641754,110.544090 
	C173.402908,100.229095 173.894958,81.339111 165.766235,67.281410 
	C156.857117,51.874104 137.146759,48.830189 122.127289,51.938473 
	C117.825050,52.828823 115.526558,56.091175 114.239273,59.796082 
	C113.238083,62.677601 113.254921,65.912834 112.475830,69.740700 
z"/>
<path fill="#6481B7" opacity="1.000000" stroke="none" 
	d="
M79.950821,62.440357 
	C80.599770,63.735641 81.899170,65.450325 81.903732,67.168442 
	C82.014778,108.995651 82.058113,150.823593 81.839485,192.649979 
	C81.823692,195.672195 79.719513,198.683487 78.262314,201.835022 
	C78.635460,198.893188 79.332634,195.816193 80.341507,191.992874 
	C80.770897,190.094116 80.990898,188.941727 80.991455,187.789246 
	C81.010063,149.328918 81.018837,110.868568 80.973000,72.408302 
	C80.970886,70.632782 80.451584,68.857887 80.173157,67.082703 
	C80.114769,65.675583 80.056389,64.268471 79.950821,62.440357 
z"/>
<path fill="#C0CDE4" opacity="1.000000" stroke="none" 
	d="
M80.109711,67.542603 
	C80.451584,68.857887 80.970886,70.632782 80.973000,72.408302 
	C81.018837,110.868568 81.010063,149.328918 80.991455,187.789246 
	C80.990898,188.941727 80.770897,190.094116 80.413147,191.579468 
	C80.112190,162.601303 80.038979,133.290253 79.996368,103.979156 
	C79.978935,91.986992 80.027649,79.994728 80.109711,67.542603 
z"/>
<path fill="#6481B5" opacity="1.000000" stroke="none" 
	d="
M114.543007,37.094711 
	C113.894363,37.762691 112.782104,38.873573 111.670105,38.873306 
	C102.028526,38.870979 92.387009,38.669014 82.370041,38.355927 
	C92.689583,37.797729 103.384544,37.410084 114.543007,37.094711 
z"/>
<path fill="#AEC0DF" opacity="1.000000" stroke="none" 
	d="
M72.389114,224.841324 
	C73.105057,224.247345 74.257431,223.251724 75.416664,223.243652 
	C85.049911,223.176682 94.684418,223.292023 104.661667,223.589630 
	C98.683792,223.885468 92.360001,223.849045 86.042747,224.034958 
	C81.633438,224.164749 77.233086,224.599075 72.389114,224.841324 
z"/>
<path fill="#6481B5" opacity="1.000000" stroke="none" 
	d="
M78.620193,38.106499 
	C77.860382,38.277767 76.704521,38.374138 75.282974,38.320831 
	C76.086235,38.124638 77.155190,38.078121 78.620193,38.106499 
z"/>
<path fill="#6481B7" opacity="1.000000" stroke="none" 
	d="
M77.883270,58.429298 
	C78.167274,58.598095 78.494415,59.082539 78.891617,59.858566 
	C78.616592,59.681751 78.271492,59.213348 77.883270,58.429298 
z"/>
<path fill="#6481B7" opacity="1.000000" stroke="none" 
	d="
M77.677437,202.069458 
	C77.743195,202.481781 77.521294,203.019577 77.095245,203.768707 
	C77.057320,203.385010 77.223549,202.789993 77.677437,202.069458 
z"/>
<path fill="#6481B5" opacity="1.000000" stroke="none" 
	d="
M81.003647,37.725250 
	C80.896347,37.973442 80.697998,37.977921 80.201859,37.975327 
	C80.240250,37.806015 80.576431,37.643780 81.003647,37.725250 
z"/>
<path fill="#000000" opacity="1.000000" stroke="none" 
	d="
M159.917511,209.953568 
	C159.917511,209.953568 159.458939,210.041779 158.794403,210.043198 
	C150.102356,210.422318 142.074844,210.800018 134.047333,211.177719 
	C131.129486,210.336700 128.180695,209.589279 125.299706,208.636795 
	C117.226067,205.967560 113.528740,200.025330 112.961456,190.948639 
	C112.922974,170.718689 112.873878,151.361252 112.824791,132.003799 
	C113.350517,131.676422 113.890976,131.042099 114.399826,131.066513 
	C127.386017,131.689575 140.490250,131.530807 153.309875,133.359375 
	C161.915070,134.586807 169.902405,138.991684 175.646820,147.100891 
	C176.351181,147.731949 176.676331,147.911880 177.001480,148.091797 
	C177.001480,148.091797 176.965942,148.006531 176.971237,148.391937 
	C182.138336,157.968506 185.979111,167.706757 184.831161,178.353180 
	C184.150742,184.663620 181.610413,190.773514 179.906387,196.973572 
	C179.906387,196.973572 179.970810,196.980560 179.657486,197.088196 
	C178.840027,198.131516 178.335876,199.067215 177.831741,200.002914 
	C177.289017,200.449875 176.746277,200.896835 175.824036,201.684204 
	C175.265839,202.351685 175.087143,202.678772 174.908447,203.005859 
	C174.908463,203.005859 174.994415,202.984039 174.659409,203.000916 
	C173.515305,203.662552 172.706207,204.307297 171.897125,204.952057 
	C171.897125,204.952057 171.980316,204.967560 171.717285,205.013702 
	C171.257187,205.371338 171.060089,205.682831 170.862991,205.994308 
	C170.862991,205.994308 170.512756,206.047485 169.988525,206.003174 
	C168.285370,206.628769 167.106445,207.298676 165.927521,207.968582 
	C165.927521,207.968582 165.997147,207.977997 165.686249,207.993530 
	C164.889359,208.323425 164.403381,208.637787 163.917389,208.952148 
	C163.505585,208.982117 163.093796,209.012085 162.054901,209.010895 
	C160.924377,209.304337 160.420944,209.628952 159.917511,209.953568 
z"/>
<path fill="#000000" opacity="1.000000" stroke="none" 
	d="
M112.819305,68.990868 
	C113.254921,65.912834 113.238083,62.677601 114.239273,59.796082 
	C115.526558,56.091175 117.825050,52.828823 122.127289,51.938473 
	C137.146759,48.830189 156.857117,51.874104 165.766235,67.281410 
	C173.894958,81.339111 173.402908,100.229095 161.641754,110.544090 
	C157.873886,113.848640 152.248840,116.145752 147.233215,116.690178 
	C136.244980,117.882927 125.103043,117.659637 113.521286,117.527893 
	C112.952240,101.024391 112.885773,85.007629 112.819305,68.990868 
z"/>
<path fill="#7087B1" opacity="1.000000" stroke="none" 
	d="
M180.238678,196.866302 
	C181.610413,190.773514 184.150742,184.663620 184.831161,178.353180 
	C185.979111,167.706757 182.138336,157.968506 176.928650,148.409836 
	C178.170120,149.265320 179.916367,150.255386 180.677216,151.747818 
	C187.353912,164.844009 187.899719,178.477142 183.593689,192.367203 
	C183.091309,193.987747 181.602478,195.302490 180.238678,196.866302 
z"/>
<path fill="#7492C5" opacity="1.000000" stroke="none" 
	d="
M112.651581,132.376724 
	C112.873878,151.361252 112.922974,170.718689 112.896301,190.541565 
	C112.552101,189.717468 112.053474,188.428543 112.050026,187.138321 
	C112.003716,169.823929 112.020447,152.509338 112.051033,135.194855 
	C112.052475,134.379532 112.329628,133.564713 112.651581,132.376724 
z"/>
<path fill="#7492C5" opacity="1.000000" stroke="none" 
	d="
M112.647568,69.365784 
	C112.885773,85.007629 112.952240,101.024391 113.059341,117.506393 
	C112.778450,117.219780 112.174263,116.466858 112.177109,115.716225 
	C112.235039,100.390892 112.362358,85.065819 112.647568,69.365784 
z"/>
<path fill="#7087B1" opacity="1.000000" stroke="none" 
	d="
M134.418854,211.340424 
	C142.074844,210.800018 150.102356,210.422318 158.573456,210.118713 
	C150.941498,210.629593 142.865936,211.066360 134.418854,211.340424 
z"/>
<path fill="#7087B1" opacity="1.000000" stroke="none" 
	d="
M166.284027,207.963211 
	C167.106445,207.298676 168.285370,206.628769 169.817810,206.050385 
	C168.994370,206.747208 167.817444,207.352524 166.284027,207.963211 
z"/>
<path fill="#7087B1" opacity="1.000000" stroke="none" 
	d="
M178.151352,199.885010 
	C178.335876,199.067215 178.840027,198.131516 179.649826,197.056702 
	C179.460648,197.867432 178.965805,198.817261 178.151352,199.885010 
z"/>
<path fill="#7087B1" opacity="1.000000" stroke="none" 
	d="
M172.235352,204.922623 
	C172.706207,204.307297 173.515305,203.662552 174.648407,202.957962 
	C174.172791,203.563141 173.373184,204.228165 172.235352,204.922623 
z"/>
<path fill="#7087B1" opacity="1.000000" stroke="none" 
	d="
M164.205231,208.882095 
	C164.403381,208.637787 164.889359,208.323425 165.690216,207.958618 
	C165.501099,208.209473 164.997086,208.510757 164.205231,208.882095 
z"/>
<path fill="#7087B1" opacity="1.000000" stroke="none" 
	d="
M160.202423,209.899048 
	C160.420944,209.628952 160.924377,209.304337 161.748581,209.056946 
	C161.542007,209.370941 161.014679,209.607727 160.202423,209.899048 
z"/>
<path fill="#7087B1" opacity="1.000000" stroke="none" 
	d="
M176.839142,147.878845 
	C176.676331,147.911880 176.351181,147.731949 175.932510,147.277756 
	C176.118256,147.224289 176.397537,147.445084 176.839142,147.878845 
z"/>
<path fill="#7087B1" opacity="1.000000" stroke="none" 
	d="
M171.077301,205.836990 
	C171.060089,205.682831 171.257187,205.371338 171.724792,204.972076 
	C171.760773,205.149414 171.526199,205.414551 171.077301,205.836990 
z"/>
<path fill="#7087B1" opacity="1.000000" stroke="none" 
	d="
M175.120789,202.841736 
	C175.087143,202.678772 175.265839,202.351685 175.719666,201.930511 
	C175.774231,202.116821 175.553680,202.397202 175.120789,202.841736 
z"/>
</svg>